
<?xml version="1.0" encoding="UTF-8" standalone="no"?>
<svg
   xmlns:dc="http://purl.org/dc/elements/1.1/"
   xmlns:cc="http://creativecommons.org/ns#"
   xmlns:rdf="http://www.w3.org/1999/02/22-rdf-syntax-ns#"
   xmlns:svg="http://www.w3.org/2000/svg"
   xmlns="http://www.w3.org/2000/svg"
   viewBox="0 0 1056 816"
   height="816"
   width="1056"
   xml:space="preserve"
   id="svg2"
   version="1.1"><metadata
     id="metadata8"><rdf:RDF><cc:Work
         rdf:about=""><dc:format>image/svg+xml</dc:format><dc:type
           rdf:resource="http://purl.org/dc/dcmitype/StillImage" /></cc:Work></rdf:RDF></metadata><defs
     id="defs6" /><g
     transform="matrix(1.3333333,0,0,-1.3333333,0,816)"
     id="g10"><g
       transform="scale(0.1)"
       id="g12"><path
         id="path14"
         style="fill:#ffffff;fill-opacity:1;fill-rule:evenodd;stroke:none"
         d="m 2239.25,2308.97 c 0,-5.85 -3.12,-11.29 -8.08,-14.16 -4.97,-3.02 -11.23,-3.02 -16.24,0 l -160.39,92.38 c -10.05,6 -16.29,16.75 -16.29,28.45 v 196.54 c 0,11.72 -6.18,22.56 -16.25,28.38 l -68.06,39.57 c -4.93,2.96 -10.62,4.4 -16.17,4.4 -5.67,0 -11.21,-1.44 -16.29,-4.4 l -68.08,-39.57 c -10.08,-5.82 -16.23,-16.66 -16.23,-28.38 v -196.54 c 0,-11.7 -6.15,-22.39 -16.27,-28.45 L 1661,2294.81 c -4.98,-3.02 -11.15,-3.02 -16.14,0 -5.1,2.87 -8.12,8.31 -8.12,14.16 v 1531.17 c 0,11.8 5.65,22.64 15.68,28.49 l 269.06,156.23 c 4.62,2.7 9.72,4.1 14.86,4.31 0.38,0 2.32,0 2.78,0 5.17,-0.21 10.26,-1.61 14.82,-4.31 L 2223,3868.63 c 10.09,-5.85 16.25,-16.69 16.25,-28.49 V 2308.97" /><path
         id="path16"
         style="fill:#66c431;fill-opacity:1;fill-rule:evenodd;stroke:none"
         d="m 1787.11,3521.46 c -5.33,-2.99 -8.6,-8.53 -8.6,-14.52 v -160.47 c 0,-5.99 3.27,-11.53 8.59,-14.53 l 142.28,-80.23 c 5.32,-3 11.87,-3 17.19,0 l 142.32,80.23 c 5.31,3 8.59,8.54 8.59,14.53 v 160.46 c 0,6 -3.28,11.54 -8.6,14.53 l -142.31,80.17 c -5.32,3 -11.87,3 -17.18,0 l -142.28,-80.17" /><path
         id="path18"
         style="fill:#ffffff;fill-opacity:1;fill-rule:evenodd;stroke:none"
         d="m 1317.2,2086.95 279.53,176.49 c 2.95,3.5 4.57,7.92 4.57,12.48 v 422.39 c 0,18.23 -23.07,26.48 -34.88,12.48 L 1286.9,2534.3 c -2.95,-3.5 -4.57,-7.92 -4.57,-12.48 v -422.39 c 0,-18.23 23.06,-26.49 34.87,-12.48" /><path
         id="path20"
         style="fill:#ffffff;fill-opacity:1;fill-rule:evenodd;stroke:none"
         d="m 2558.78,2086.95 -279.52,176.49 c -2.96,3.5 -4.57,7.92 -4.57,12.48 v 422.39 c 0,18.23 23.06,26.48 34.87,12.48 l 279.53,-176.49 c 2.95,-3.5 4.57,-7.92 4.57,-12.48 v -422.39 c 0,-18.23 -23.07,-26.49 -34.88,-12.48" /><path
         id="path22"
         style="fill:#ffffff;fill-opacity:1;fill-rule:nonzero;stroke:none"
         d="m 3182.82,2540.63 -197.89,264.79 v -264.79 h -79.38 v 396.91 h 79.38 l 197.89,-264.22 v 264.22 h 78.81 v -396.91 h -78.81" /><path
         id="path24"
         style="fill:#ffffff;fill-opacity:1;fill-rule:nonzero;stroke:none"
         d="m 3587.59,2620.01 v 238.15 H 3389.7 v -238.15 z m -238.16,-79.38 -39.12,39.12 v 317.53 l 39.12,40.26 h 277.85 l 39.12,-40.26 v -317.53 l -39.12,-39.12 h -277.85" /><path
         id="path26"
         style="fill:#ffffff;fill-opacity:1;fill-rule:nonzero;stroke:none"
         d="m 3992.35,2778.77 -79.38,79.39 h -118.51 v -238.15 h 197.89 z m 78.81,-199.02 -39.12,-39.12 h -316.96 v 396.91 h 237.58 l 118.5,-119.07 v -238.72" /><path
         id="path28"
         style="fill:#ffffff;fill-opacity:1;fill-rule:nonzero;stroke:none"
         d="m 4116.95,2540.63 v 396.91 h 336.81 v -79.38 h -257.42 v -79.95 h 237.58 v -79.39 h -237.58 v -78.81 h 257.42 v -79.38 h -336.81" /><path
         id="path30"
         style="fill:#ffffff;fill-opacity:1;fill-rule:nonzero;stroke:none"
         d="m 4776.82,2738.52 v 119.64 h -197.89 v -119.64 z m 0,-197.89 v 39.12 l -39.7,40.26 -39.69,39.13 h -118.5 v -118.51 h -79.39 v 396.91 h 316.96 l 39.13,-40.26 v -198.46 l -39.13,-39.68 39.13,-39.13 v -79.38 h -78.81" /><path
         id="path32"
         style="fill:#ffffff;fill-opacity:1;fill-rule:nonzero;stroke:none"
         d="m 5181.36,2620.01 v 238.15 h -197.89 v -238.15 z m -238.16,-79.38 -39.12,39.12 v 317.53 l 39.12,40.26 h 277.84 l 39.13,-40.26 v -317.53 l -39.13,-39.12 H 4943.2" /><path
         id="path34"
         style="fill:#ffffff;fill-opacity:1;fill-rule:nonzero;stroke:none"
         d="m 5347.74,2540.63 -39.12,39.12 v 317.53 l 39.12,40.26 h 277.85 l 39.12,-40.26 v -78.81 h -78.81 v 39.69 h -197.89 v -238.15 h 197.89 v 39.13 h 78.81 v -79.39 l -39.12,-39.12 h -277.85" /><path
         id="path36"
         style="fill:#ffffff;fill-opacity:1;fill-rule:nonzero;stroke:none"
         d="m 5710.5,2540.63 v 396.91 h 79.38 v -159.33 h 118.51 l 79.38,79.38 v 79.95 h 78.81 v -119.63 l -78.81,-79.39 78.81,-79.38 v -118.51 h -78.81 v 79.38 l -79.38,78.81 h -118.51 v -158.19 h -79.38" /><path
         id="path38"
         style="fill:#ffffff;fill-opacity:1;fill-rule:nonzero;stroke:none"
         d="m 6112.36,2540.63 v 396.91 h 336.81 v -79.38 h -257.42 v -79.95 h 237.58 v -79.39 h -237.58 v -78.81 h 257.42 v -79.38 h -336.81" /><path
         id="path40"
         style="fill:#ffffff;fill-opacity:1;fill-rule:nonzero;stroke:none"
         d="m 6626,2540.63 v 317.53 h -138.93 v 79.38 h 356.09 v -79.38 H 6705.37 V 2540.63 H 6626" /></g></g></svg>