<svg id="Layer_1" data-name="Layer 1" xmlns="http://www.w3.org/2000/svg" viewBox="0 0 556.08 194.93"><defs><style>.cls-1,.cls-2{fill:#fff;}.cls-1,.cls-3{fill-rule:evenodd;}.cls-3{fill:#ec1c24;}</style></defs><title>nrlogo_redwhite</title><path class="cls-1" d="M223.92,381.1a1.65,1.65,0,0,1-.8,1.42,1.59,1.59,0,0,1-1.63,0l-16-9.24a3.31,3.31,0,0,1-1.62-2.84V350.78a3.29,3.29,0,0,0-1.63-2.84L195.39,344a3.1,3.1,0,0,0-1.61-.44,3.17,3.17,0,0,0-1.63.44l-6.81,3.95a3.28,3.28,0,0,0-1.62,2.84v19.66a3.31,3.31,0,0,1-1.63,2.84l-16,9.24a1.55,1.55,0,0,1-1.61,0,1.63,1.63,0,0,1-.82-1.42V228a3.25,3.25,0,0,1,1.57-2.85l26.91-15.63a3.16,3.16,0,0,1,1.48-.43h.28a3.1,3.1,0,0,1,1.48.43l26.91,15.63a3.27,3.27,0,0,1,1.62,2.85Z" transform="translate(-128.23 -209.08)"/><path class="cls-1" d="M131.72,403.31l27.95-17.65a1.93,1.93,0,0,0,.46-1.25V342.17a2,2,0,0,0-3.49-1.25l-27.95,17.65a1.91,1.91,0,0,0-.46,1.25v42.24A2,2,0,0,0,131.72,403.31Z" transform="translate(-128.23 -209.08)"/><path class="cls-1" d="M255.88,403.31l-27.95-17.65a1.93,1.93,0,0,1-.46-1.25V342.17a2,2,0,0,1,3.49-1.25l28,17.65a2,2,0,0,1,.46,1.25v42.24A2,2,0,0,1,255.88,403.31Z" transform="translate(-128.23 -209.08)"/><path class="cls-2" d="M318.28,357.94l-19.79-26.48v26.48h-7.94V318.25h7.94l19.79,26.42V318.25h7.88v39.69Z" transform="translate(-128.23 -209.08)"/><path class="cls-2" d="M334.94,357.94,331,354V322.27l3.91-4h27.79l3.91,4V354l-3.91,3.91ZM358.76,350V326.18H339V350Z" transform="translate(-128.23 -209.08)"/><path class="cls-2" d="M407.12,354l-3.92,3.91H371.51V318.25h23.76l11.85,11.9Zm-7.88-19.91-7.94-7.94H379.45V350h19.79Z" transform="translate(-128.23 -209.08)"/><path class="cls-2" d="M411.7,357.94V318.25h33.68v7.93H419.63v8h23.76v7.94H419.63V350h25.75v7.94Z" transform="translate(-128.23 -209.08)"/><path class="cls-2" d="M477.68,357.94V354l-4-4-4-3.91H457.89v11.85H450V318.25h31.7l3.91,4v19.85l-3.91,4,3.91,3.91v7.94Zm0-19.79v-12H457.89v12Z" transform="translate(-128.23 -209.08)"/><path class="cls-2" d="M494.32,357.94,490.41,354V322.27l3.91-4H522.1l3.92,4V354l-3.92,3.91ZM518.14,350V326.18H498.35V350Z" transform="translate(-128.23 -209.08)"/><path class="cls-2" d="M534.77,357.94,530.86,354V322.27l3.91-4h27.79l3.91,4v7.88h-7.88v-4H538.8V350h19.79v-3.91h7.88V354l-3.91,3.91Z" transform="translate(-128.23 -209.08)"/><path class="cls-2" d="M571.05,357.94V318.25H579v15.93h11.85l7.94-7.94v-8h7.88v12l-7.88,7.94,7.88,7.94v11.85h-7.88V350l-7.94-7.88H579v15.82Z" transform="translate(-128.23 -209.08)"/><path class="cls-2" d="M611.24,357.94V318.25h33.68v7.93H619.17v8h23.76v7.94H619.17V350h25.75v7.94Z" transform="translate(-128.23 -209.08)"/><path class="cls-2" d="M662.6,357.94V326.18H648.71v-7.93h35.61v7.93H670.54v31.76Z" transform="translate(-128.23 -209.08)"/><path class="cls-3" d="M178.71,259.85a1.69,1.69,0,0,0-.86,1.46v16a1.69,1.69,0,0,0,.86,1.46l14.23,8a1.76,1.76,0,0,0,1.72,0l14.23-8a1.69,1.69,0,0,0,.86-1.46v-16a1.69,1.69,0,0,0-.86-1.46l-14.23-8a1.76,1.76,0,0,0-1.72,0Z" transform="translate(-128.23 -209.08)"/></svg>