<svg id="Layer_1" data-name="Layer 1" xmlns="http://www.w3.org/2000/svg" viewBox="0 0 238.61 83.64"><defs><style>.cls-1{fill-rule:evenodd;}</style></defs><title>nrlogo_4</title><path class="cls-1" d="M358.2,363.71l12-7.58a.81.81,0,0,0,.2-.53V337.47a.85.85,0,0,0-1.5-.53l-12,7.57a.82.82,0,0,0-.2.54v18.12A.85.85,0,0,0,358.2,363.71Z" transform="translate(-356.7 -280.37)"/><path class="cls-1" d="M411.47,363.71l-12-7.58a.81.81,0,0,1-.2-.53V337.47a.85.85,0,0,1,1.5-.53l12,7.57a.82.82,0,0,1,.2.54v18.12A.85.85,0,0,1,411.47,363.71Z" transform="translate(-356.7 -280.37)"/><path d="M438.25,344.24l-8.49-11.36v11.36h-3.41v-17h3.41l8.49,11.34V327.21h3.38v17Z" transform="translate(-356.7 -280.37)"/><path d="M445.4,344.24l-1.68-1.68V328.94l1.68-1.73h11.92l1.68,1.73v13.62l-1.68,1.68Zm10.22-3.41V330.62h-8.49v10.21Z" transform="translate(-356.7 -280.37)"/><path d="M476.37,342.56l-1.68,1.68h-13.6v-17h10.2l5.08,5.11ZM473,334l-3.41-3.4H464.5v10.21H473Z" transform="translate(-356.7 -280.37)"/><path d="M478.34,344.24v-17h14.45v3.41H481.74v3.43h10.2v3.4h-10.2v3.38h11.05v3.41Z" transform="translate(-356.7 -280.37)"/><path d="M506.65,344.24v-1.68l-1.7-1.73-1.71-1.67h-5.08v5.08h-3.41v-17h13.6l1.68,1.73v8.51l-1.68,1.71,1.68,1.67v3.41Zm0-8.49v-5.13h-8.49v5.13Z" transform="translate(-356.7 -280.37)"/><path d="M513.79,344.24l-1.68-1.68V328.94l1.68-1.73h11.92l1.68,1.73v13.62l-1.68,1.68ZM524,340.83V330.62h-8.49v10.21Z" transform="translate(-356.7 -280.37)"/><path d="M531.15,344.24l-1.68-1.68V328.94l1.68-1.73h11.92l1.68,1.73v3.38h-3.38v-1.7h-8.49v10.21h8.49v-1.67h3.38v3.4l-1.68,1.68Z" transform="translate(-356.7 -280.37)"/><path d="M546.71,344.24v-17h3.41v6.84h5.09l3.4-3.41v-3.43H562v5.13l-3.38,3.41,3.38,3.41v5.08h-3.38v-3.41l-3.4-3.38h-5.09v6.79Z" transform="translate(-356.7 -280.37)"/><path d="M564,344.24v-17h14.45v3.41h-11v3.43h10.2v3.4h-10.2v3.38h11v3.41Z" transform="translate(-356.7 -280.37)"/><path d="M586,344.24V330.62h-6v-3.41h15.28v3.41H589.4v13.62Z" transform="translate(-356.7 -280.37)"/><path class="cls-1" d="M397.07,287.26l-11.55-6.71a1.43,1.43,0,0,0-.64-.18h-.11a1.43,1.43,0,0,0-.64.18l-11.55,6.71a1.38,1.38,0,0,0-.67,1.22v65.7a.69.69,0,0,0,.35.61.66.66,0,0,0,.69,0l6.86-4a1.4,1.4,0,0,0,.7-1.22v-8.43a1.4,1.4,0,0,1,.7-1.22l2.92-1.7a1.43,1.43,0,0,1,1.39,0l2.92,1.7a1.42,1.42,0,0,1,.7,1.22v8.43a1.41,1.41,0,0,0,.7,1.22l6.88,4a.68.68,0,0,0,.7,0,.71.71,0,0,0,.34-.61v-65.7A1.4,1.4,0,0,0,397.07,287.26Zm-5.39,19.65a.72.72,0,0,1-.37.63L385.2,311a.73.73,0,0,1-.73,0l-6.11-3.44a.72.72,0,0,1-.37-.63V300a.72.72,0,0,1,.37-.63l6.11-3.44a.79.79,0,0,1,.73,0l6.11,3.44a.72.72,0,0,1,.37.63Z" transform="translate(-356.7 -280.37)"/></svg>